<svg width="40" height="40" viewBox="0 0 40 40" fill="none" xmlns="http://www.w3.org/2000/svg">
<path d="M5.00002 31.6668H35C35.3038 31.6659 35.6015 31.5821 35.8611 31.4245C36.1208 31.267 36.3326 31.0416 36.4737 30.7726C36.6148 30.5036 36.6798 30.2012 36.6619 29.898C36.6439 29.5948 36.5436 29.3023 36.3717 29.0518L21.3717 7.38518C20.75 6.48684 19.2534 6.48684 18.63 7.38518L3.63002 29.0518C3.4564 29.3017 3.35458 29.5945 3.33563 29.8982C3.31668 30.2019 3.38133 30.505 3.52254 30.7745C3.66376 31.0441 3.87615 31.2698 4.13663 31.4271C4.39711 31.5844 4.69572 31.6673 5.00002 31.6668Z" fill="#FFD400"/>
</svg>
