<svg width="24" height="24" viewBox="0 0 24 24" fill="none" xmlns="http://www.w3.org/2000/svg">
<g clip-path="url(#clip0_765_6202)">
<path d="M9.14045 22.5469H2.10933C0.946247 22.5469 0 21.6007 0 20.4376V13.4065C0 12.2434 0.946247 11.2971 2.10933 11.2971H9.14045C10.3035 11.2971 11.2498 12.2434 11.2498 13.4065V20.4376C11.2498 21.6007 10.3035 22.5469 9.14045 22.5469ZM2.10933 12.7033C1.72164 12.7033 1.40622 13.0188 1.40622 13.4065V20.4376C1.40622 20.8253 1.72164 21.1407 2.10933 21.1407H9.14045C9.52814 21.1407 9.84356 20.8253 9.84356 20.4376V13.4065C9.84356 13.0188 9.52814 12.7033 9.14045 12.7033H2.10933Z" fill="white"/>
<path d="M3.51556 15.5158C3.90389 15.5158 4.21869 15.201 4.21869 14.8127C4.21869 14.4244 3.90389 14.1096 3.51556 14.1096C3.12724 14.1096 2.81244 14.4244 2.81244 14.8127C2.81244 15.201 3.12724 15.5158 3.51556 15.5158Z" fill="white"/>
<path d="M7.73425 15.5158C8.12258 15.5158 8.43738 15.201 8.43738 14.8127C8.43738 14.4244 8.12258 14.1096 7.73425 14.1096C7.34593 14.1096 7.03113 14.4244 7.03113 14.8127C7.03113 15.201 7.34593 15.5158 7.73425 15.5158Z" fill="white"/>
<path d="M3.51556 19.7345C3.90389 19.7345 4.21869 19.4197 4.21869 19.0314C4.21869 18.643 3.90389 18.3282 3.51556 18.3282C3.12724 18.3282 2.81244 18.643 2.81244 19.0314C2.81244 19.4197 3.12724 19.7345 3.51556 19.7345Z" fill="white"/>
<path d="M5.62491 17.6251C6.01323 17.6251 6.32803 17.3103 6.32803 16.922C6.32803 16.5337 6.01323 16.2189 5.62491 16.2189C5.23658 16.2189 4.92178 16.5337 4.92178 16.922C4.92178 17.3103 5.23658 17.6251 5.62491 17.6251Z" fill="white"/>
<path d="M7.73425 19.7345C8.12258 19.7345 8.43738 19.4197 8.43738 19.0314C8.43738 18.643 8.12258 18.3282 7.73425 18.3282C7.34593 18.3282 7.03113 18.643 7.03113 19.0314C7.03113 19.4197 7.34593 19.7345 7.73425 19.7345Z" fill="white"/>
<path d="M13.9741 14.2225L10.4585 8.13336C9.87567 7.12379 10.2209 5.83494 11.2306 5.25196L17.3197 1.73641C18.3292 1.15348 19.6182 1.49871 20.2011 2.50847L23.7167 8.5976C24.2996 9.60718 23.9544 10.8961 22.9446 11.479L16.8555 14.9946C15.8419 15.5798 14.5519 15.2233 13.9741 14.2225ZM18.0229 2.95424L11.9338 6.4698C11.5973 6.66405 11.482 7.09365 11.6764 7.43025L15.1919 13.5194C15.3858 13.8552 15.8167 13.9706 16.1524 13.7768L22.2416 10.2612C22.5781 10.0669 22.6932 9.63732 22.4989 9.30071L18.9833 3.21158C18.7894 2.87578 18.3601 2.75953 18.0229 2.95424Z" fill="white"/>
<path d="M14.2062 8.29657C14.5946 8.29657 14.9094 7.98177 14.9094 7.59344C14.9094 7.20512 14.5946 6.89032 14.2062 6.89032C13.8179 6.89032 13.5031 7.20512 13.5031 7.59344C13.5031 7.98177 13.8179 8.29657 14.2062 8.29657Z" fill="white"/>
<path d="M17.8597 6.18719C18.248 6.18719 18.5628 5.8724 18.5628 5.48407C18.5628 5.09574 18.248 4.78094 17.8597 4.78094C17.4714 4.78094 17.1566 5.09574 17.1566 5.48407C17.1566 5.8724 17.4714 6.18719 17.8597 6.18719Z" fill="white"/>
<path d="M16.3156 11.95C16.7039 11.95 17.0187 11.6352 17.0187 11.2469C17.0187 10.8586 16.7039 10.5438 16.3156 10.5438C15.9273 10.5438 15.6125 10.8586 15.6125 11.2469C15.6125 11.6352 15.9273 11.95 16.3156 11.95Z" fill="white"/>
<path d="M19.969 9.8407C20.3573 9.8407 20.6721 9.5259 20.6721 9.13757C20.6721 8.74925 20.3573 8.43445 19.969 8.43445C19.5807 8.43445 19.2659 8.74925 19.2659 9.13757C19.2659 9.5259 19.5807 9.8407 19.969 9.8407Z" fill="white"/>
</g>
<defs>
<clipPath id="clip0_765_6202">
<rect width="24" height="24" fill="white"/>
</clipPath>
</defs>
</svg>
