<svg width="32" height="32" viewBox="0 0 32 32" fill="none" xmlns="http://www.w3.org/2000/svg">
<path d="M27.25 0C26.1956 0 25.2215 0.350187 24.4375 0.940125V0.9375C24.4375 0.41975 24.0177 0 23.5 0H8.5C7.98225 0 7.5625 0.41975 7.5625 0.9375V0.940063C6.7785 0.350188 5.80444 0 4.75 0C2.15894 0 0 2.09588 0 4.6875C0 7.29138 2.29156 8.93488 4.31331 10.385C5.98425 11.5834 7.5625 12.7154 7.5625 14.0625C7.5625 17.3628 10.0114 20.1019 13.1875 20.5583V22.625H8.5C8.06981 22.625 7.69481 22.9178 7.5905 23.3351L5.7155 30.8351C5.64544 31.1152 5.70837 31.4119 5.88606 31.6394C6.06375 31.8669 6.33631 32 6.625 32H25.375C25.6637 32 25.9363 31.867 26.1139 31.6394C26.2916 31.4119 26.3546 31.1152 26.2845 30.8351L24.4095 23.3351C24.3052 22.9178 23.9302 22.625 23.5 22.625H18.8125V20.5583C21.9886 20.1019 24.4375 17.3628 24.4375 14.0625C24.4375 12.7154 26.0158 11.5834 27.6867 10.385C29.7084 8.93488 32 7.29138 32 4.6875C32 2.09644 29.8416 0 27.25 0ZM5.40613 8.86137C3.59019 7.55894 1.875 6.32875 1.875 4.6875C1.875 3.16294 3.19156 1.875 4.75 1.875C6.30081 1.875 7.5625 3.13669 7.5625 4.68794C7.56238 5.20487 7.14188 5.62531 6.625 5.62531C6.10806 5.62525 5.6875 5.20463 5.6875 4.6875C5.6875 4.16975 5.26775 3.75006 4.75 3.75006C4.23225 3.75006 3.8125 4.16988 3.8125 4.68762C3.8125 6.23831 5.07406 7.50006 6.62469 7.50025H6.625C6.95363 7.50025 7.26906 7.443 7.5625 7.33887V10.5317C6.90963 9.93994 6.15312 9.39719 5.40613 8.86137ZM24.1742 30.125H7.82575L9.232 24.5H22.768L24.1742 30.125ZM17.875 18.75C17.3573 18.75 16.9375 19.1698 16.9375 19.6875V22.625H15.0625V19.6875C15.0625 19.1698 14.6427 18.75 14.125 18.75C11.5403 18.75 9.4375 16.6472 9.4375 14.0625V1.875H22.5625V14.0625C22.5625 16.6472 20.4597 18.75 17.875 18.75ZM26.5939 8.86137C25.8469 9.39719 25.0904 9.93994 24.4375 10.5318V7.339C24.7309 7.44306 25.0464 7.50025 25.375 7.50025H25.3753C26.9259 7.50012 28.1875 6.23837 28.1875 4.6875C28.1875 4.16975 27.7677 3.75006 27.25 3.75006C26.7323 3.75006 26.3125 4.16988 26.3125 4.68762C26.3125 5.20456 25.8919 5.62519 25.3751 5.62525C24.8582 5.62537 24.4376 5.20487 24.4375 4.6875C24.4375 3.13669 25.6992 1.875 27.25 1.875C28.8084 1.875 30.125 3.16294 30.125 4.6875C30.125 6.32875 28.4098 7.55894 26.5939 8.86137Z" fill="#FF7F00"/>
<path d="M11.3125 27.3125C11.3125 27.8303 11.7322 28.25 12.25 28.25H19.75C20.2677 28.25 20.6875 27.8303 20.6875 27.3125C20.6875 26.7947 20.2677 26.375 19.75 26.375H12.25C11.7322 26.375 11.3125 26.7947 11.3125 27.3125Z" fill="#FF7F00"/>
<path d="M19.7013 8.22594L17.7247 7.93875L16.8407 6.14762C16.6827 5.82756 16.3569 5.625 16 5.625C15.6431 5.625 15.3172 5.82756 15.1593 6.14762L14.2753 7.93875L12.2987 8.22594C11.9456 8.27725 11.6521 8.52463 11.5419 8.864C11.4316 9.20338 11.5236 9.57594 11.7792 9.82506L13.2095 11.2192L12.8718 13.1879C12.8115 13.5396 12.9561 13.8951 13.2447 14.1048C13.5334 14.3145 13.9162 14.3422 14.2321 14.1762L16 13.2467L17.7679 14.1762C18.0864 14.3436 18.4689 14.3129 18.7553 14.1048C19.044 13.8951 19.1886 13.5396 19.1282 13.1879L18.7906 11.2192L20.2209 9.82506C20.4764 9.576 20.5684 9.20338 20.4581 8.864C20.3478 8.52463 20.0544 8.27725 19.7013 8.22594ZM17.1289 10.2206C16.9079 10.4359 16.8071 10.7463 16.8592 11.0504L16.9591 11.6325L16.4364 11.3576C16.1632 11.2141 15.837 11.2141 15.5638 11.3576L15.0411 11.6325L15.1409 11.0504C15.1931 10.7463 15.0923 10.4359 14.8713 10.2206L14.4483 9.80831L15.0329 9.72338C15.3382 9.679 15.6021 9.48725 15.7387 9.21056L16.0002 8.68087L16.2616 9.21056C16.3982 9.48725 16.6621 9.67906 16.9675 9.72338L17.5521 9.80831L17.1289 10.2206Z" fill="#FF7F00"/>
</svg>
